<?xml version="1.0" standalone="no"?>
<!DOCTYPE svg PUBLIC "-//W3C//DTD SVG 1.1//EN" "http://www.w3.org/Graphics/SVG/1.1/DTD/svg11.dtd">
<svg width="100%" height="100%" viewBox="0 0 2258 1460" version="1.1" xmlns="http://www.w3.org/2000/svg" xmlns:xlink="http://www.w3.org/1999/xlink" xml:space="preserve" style="fill-rule:evenodd;clip-rule:evenodd;stroke-linejoin:round;stroke-miterlimit:1.41421;">
    <g transform="matrix(3.125,0,0,3.125,-0,-0)">
        <g>
            <g transform="matrix(1,0,0,1,332.8,200.8)">
                <path d="M366.2,142.403L366.2,142.4C366.2,142.4 366,142.403 366.2,142.403C372.2,142.403 381.9,147.3 381.9,158.6L381.9,159.8L366.3,159.8L357.9,159.8C358.2,164 362.1,167.2 366.3,167.5C369.7,167.5 373,165.8 375.1,163L380.4,165.9C376.9,170.3 371.5,172.998 366.3,172.998C356.536,172.671 350.9,165.185 350.9,157.7C350.9,150.226 356.462,142.751 366.2,142.403ZM366.2,147.9C362.2,147.9 358.9,150.4 357.9,154.7L374.6,154.7C373.3,150.3 370.1,148 366.2,147.9Z" style="fill:white;"/>
            </g>
            <g transform="matrix(1,0,0,1,-100.6,200.697)">
                <path d="M728.2,167.2C733.1,167.2 737.3,163 737.3,157.8C737.3,152.5 733.1,148.4 728.2,148.4C723.227,148.433 719,152.62 719,157.8C719,163 723.2,167.1 728.2,167.2L728.2,167.2ZM728.2,172.949C728.2,172.949 728.293,172.949 728.2,172.949C718.8,172.949 712.4,164.9 712.4,157.8C712.4,150.3 718.7,142.603 728.2,142.603C728.363,142.603 728.2,142.603 728.2,142.603C731.862,142.725 735.016,144.32 737.1,146.8L737.1,143.3L743.4,143.3L743.4,182.4L737,182.4L737,168.7C735.3,171.1 732.3,172.849 728.2,172.949Z" style="fill:white;"/>
            </g>
            <g transform="matrix(1,0,0,1,297,-56.1)">
                <path d="M182,405.2C176.6,405.2 172.6,409.4 172.6,414.6C172.6,419.8 176.5,424 182,424C187.368,423.967 191.4,419.78 191.4,414.6C191.4,409.42 187.368,405.233 182,405.2L182,405.2ZM182,429.9C171.873,429.84 165.9,422.171 165.9,414.7C165.9,407 171.8,399.3 182,399.3C192.1,399.3 198,406.9 198,414.6C198,422.3 192.1,429.9 182,429.9L182,429.9Z" style="fill:rgb(255,249,249);"/>
            </g>
            <g transform="matrix(1,0,0,1,379.7,-56)">
                <path d="M182,405.2C176.6,405.2 172.6,409.4 172.6,414.6C172.6,419.8 176.5,424 182,424C187.368,423.967 191.4,419.78 191.4,414.6C191.4,409.42 187.368,405.233 182,405.2L182,405.2ZM182,429.9C171.873,429.84 165.9,422.171 165.9,414.7C165.9,407 171.8,399.3 182,399.3C192.1,399.3 198,406.9 198,414.6C198,422.3 192.1,429.9 182,429.9L182,429.9Z" style="fill:rgb(255,249,249);"/>
            </g>
            <g transform="matrix(1,0,0,1,-94.2,-56)">
                <path d="M595.1,410.9C595.1,403.5 600.1,399.2 605.8,399.2C610.2,399.2 613.4,401.3 614.5,404.3L614.6,404.3C615.8,401.3 618.9,399.2 623.3,399.2C629,399.2 634,403.4 634,410.9L634,429L627.7,429L627.7,410.9C627.7,407.4 625.5,405.4 622.9,405.4C619.9,405.4 617.7,407.2 617.7,411.7L617.7,429L611.4,429L611.4,411.7C611.4,407.2 609.2,405.4 606.2,405.4C603.6,405.4 601.4,407.4 601.4,410.9L601.4,429L595.1,429L595.1,410.9Z" style="fill:rgb(255,249,249);fill-rule:nonzero;"/>
            </g>
            <g transform="matrix(1,0,0,1,-94.2,-56)">
                <path d="M678.2,405.9L674.7,405.9L674.7,400.1L678.2,400.1L678.2,392.3L684.4,390.6L684.4,400.1L688.8,400.1L688.8,405.9L684.4,405.9L684.4,429.1L678.2,429.1L678.2,405.9Z" style="fill:rgb(255,249,249);fill-rule:nonzero;"/>
            </g>
            <g transform="matrix(1,0,0,1,-94.2,-56)">
                <path d="M696.8,390.6C698.7,390.6 700.3,392.1 700.3,394.1C700.3,396.1 698.8,397.6 696.8,397.6C694.9,397.6 693.3,396 693.3,394.1C693.3,392.2 694.8,390.6 696.8,390.6ZM693.7,400.1L699.9,400.1L699.9,429.1L693.7,429.1L693.7,400.1Z" style="fill:rgb(255,249,249);fill-rule:nonzero;"/>
            </g>
            <g transform="matrix(1,0,0,1,-94.2,-56)">
                <path d="M745,400.1L751.3,400.1L751.3,416.3C751.3,420.6 754.4,423.6 758.3,423.6C762.2,423.6 765.4,420.6 765.4,416.3L765.4,400.1L771.6,400.1L771.6,416.9C771.6,425 765.3,429.9 758.4,429.9C751.5,429.9 745.2,425 745.2,416.9L745.2,400.1L745,400.1Z" style="fill:rgb(255,249,249);fill-rule:nonzero;"/>
            </g>
            <g transform="matrix(1,0,0,1,-94.2,-56)">
                <path d="M517,391.3L535.1,391.3C546.5,392.2 553.2,400.9 553.2,410.2C553.2,419.572 546.241,428.059 535.1,429.1L528.677,429.1L517,429.1L517,391.3ZM535.1,398L524,398L524,422.3L535.1,422.3C541.9,421.4 546.2,416.3 546.2,410.2C546.2,404.1 542,398.9 535.1,398Z" style="fill:rgb(255,249,249);"/>
            </g>
        </g>
        <g transform="matrix(1,0,0,1,-94.2,-56)">
            <path d="M479.2,398.3C478.2,396.9 476.5,395.8 474.2,395.8C471.1,395.8 468.4,397.9 468.4,400.8C468.4,404 470.3,406.1 474.4,406.1L476.3,406.1L476.3,411.5C475.8,411.4 475.2,411.3 474.3,411.3C470,411.3 466.3,413.7 466.3,417.9C466.3,421.1 468.7,424.3 474.1,424.3C480.9,424.3 483.5,418.8 483.5,410.8C483.5,409 483.4,407.6 483.3,406.4L493.7,406.4L493.7,410.6L489.7,410.6L489.7,413C489.7,422.6 483.7,429.8 474,429.8C466.4,429.8 459.8,425.6 459.8,418C459.8,413.6 462.3,409.8 467.2,408.4L467.2,408.3C464.4,407.4 462.3,404.6 462.3,400.9C462.3,395.7 466.5,390.6 474.7,390.6C479.2,390.6 483,392.4 485.1,395.5L479.2,398.3Z" style="fill:rgb(255,249,249);fill-rule:nonzero;"/>
        </g>
        <g>
            <g transform="matrix(1,0,0,1,-37.6,200.8)">
                <path d="M366.2,142.403L366.2,142.4C366.2,142.4 366,142.403 366.2,142.403C372.2,142.403 381.9,147.3 381.9,158.6L381.9,159.8L366.3,159.8L357.9,159.8C358.2,164 362.1,167.2 366.3,167.5C369.7,167.5 373,165.8 375.1,163L380.4,165.9C376.9,170.3 371.5,172.998 366.3,172.998C356.536,172.671 350.9,165.185 350.9,157.7C350.9,150.226 356.462,142.751 366.2,142.403ZM366.2,147.9C362.2,147.9 358.9,150.4 357.9,154.7L374.6,154.7C373.3,150.3 370.1,148 366.2,147.9Z" style="fill:white;"/>
            </g>
            <g transform="matrix(1,0,0,1,-280.9,200.8)">
                <path d="M470.1,167.2C475,167.2 479.3,163 479.3,157.8C479.3,152.5 475,148.4 470.1,148.4C470.113,148.4 470.1,148.4 470.1,148.4C465.126,148.433 460.9,152.62 460.9,157.8C460.9,163 465.1,167.1 470.1,167.2L470.1,167.2ZM470.1,172.998C470.1,172.998 470.293,172.998 470.1,172.998C460.5,172.998 454.5,165.3 454.5,157.8C454.5,150.7 460.7,142.5 470.1,142.5C474.2,142.6 477.5,144.4 479,146.8L479,143.3L485.3,143.3L485.3,172.4L479,172.4L479,168.7C477.1,171.2 473.8,172.798 470.1,172.998Z" style="fill:white;"/>
            </g>
            <g transform="matrix(1,0,0,1,-471.7,200.8)">
                <path d="M728.2,167.2C733.1,167.2 737.3,163 737.3,157.8C737.3,152.5 733.1,148.4 728.2,148.4C723.227,148.433 719,152.62 719,157.8C719,163 723.2,167.1 728.2,167.2L728.2,167.2ZM728.2,172.949C728.2,172.949 728.293,172.949 728.2,172.949C718.8,172.949 712.4,164.9 712.4,157.8C712.4,150.3 718.7,142.603 728.2,142.603C728.363,142.603 728.2,142.603 728.2,142.603C731.862,142.725 735.016,144.32 737.1,146.8L737.1,143.3L743.4,143.3L743.4,182.4L737,182.4L737,168.7C735.3,171.1 732.3,172.849 728.2,172.949Z" style="fill:white;"/>
            </g>
            <g transform="matrix(1,0,0,1,-94.2,-56)">
                <rect x="98.4" y="391.4" width="6.9" height="37.7" style="fill:rgb(255,249,249);"/>
            </g>
            <g transform="matrix(1,0,0,1,-94.2,-56)">
                <path d="M114.4,400.1L120.7,400.1L120.7,403.8L120.8,403.8C122.5,401.1 125.7,399.3 129.7,399.3C135.8,399.3 141,404.4 141,411.6L141,429.1L134.7,429.1L134.7,413C134.7,407.7 132,405.5 127.8,405.5C123.8,405.5 120.7,408.1 120.7,412.8L120.7,429.1L114.4,429.1L114.4,400.1Z" style="fill:rgb(255,249,249);fill-rule:nonzero;"/>
            </g>
            <g transform="matrix(1,0,0,1,-94.2,-56)">
                <path d="M150.6,411.9L146.5,411.9L146.5,406L150.6,406L150.6,401.1C150.6,395.7 153.8,390.6 161.4,390.6C162.8,390.6 164.9,390.8 166.2,391.4L163.6,397C162.8,396.6 162,396.4 160.9,396.4C158.4,396.4 156.9,398.6 156.9,400.7L156.9,406L163.2,406L163.2,411.9L156.9,411.9L156.9,439L150.7,439L150.7,411.9L150.6,411.9Z" style="fill:rgb(255,249,249);fill-rule:nonzero;"/>
            </g>
            <g transform="matrix(1,0,0,1,-94.2,-56)">
                <path d="M182,405.2C176.6,405.2 172.6,409.4 172.6,414.6C172.6,419.8 176.5,424 182,424C187.368,423.967 191.4,419.78 191.4,414.6C191.4,409.42 187.368,405.233 182,405.2L182,405.2ZM182,429.9C171.873,429.84 165.9,422.171 165.9,414.7C165.9,407 171.8,399.3 182,399.3C192.1,399.3 198,406.9 198,414.6C198,422.3 192.1,429.9 182,429.9L182,429.9Z" style="fill:rgb(255,249,249);"/>
            </g>
            <g transform="matrix(1,0,0,1,-94.2,-56)">
                <path d="M203.9,400.1L209.7,400.1L209.7,403.3C210.7,400.9 213,399.3 215.5,399.3C216.9,399.3 218.1,399.7 219,400.2L216.8,406.4C216.2,406 215.1,405.5 214.4,405.5C212.2,405.5 210.1,407.3 210.1,409.9L210.1,429.1L203.9,429.1L203.9,400.1Z" style="fill:rgb(255,249,249);fill-rule:nonzero;"/>
            </g>
            <g transform="matrix(1,0,0,1,-94.2,-56)">
                <path d="M223,410.9C223,403.5 227.9,399.2 233.6,399.2C238,399.2 241.2,401.3 242.3,404.3L242.4,404.3C243.5,401.3 246.7,399.2 251,399.2C256.799,399.2 261.7,403.4 261.7,410.9L261.7,429L255.4,429L255.4,410.9C255.4,407.4 253.2,405.4 250.6,405.4C247.6,405.4 245.3,407.2 245.3,411.7L245.3,429L239,429L239,411.7C239,407.2 236.8,405.4 233.8,405.4C231.2,405.4 229,407.4 229,410.9L229,429L223,429L223,410.9Z" style="fill:rgb(255,249,249);fill-rule:nonzero;"/>
            </g>
            <g transform="matrix(1,0,0,1,-94.2,-56)">
                <path d="M307.1,405.9L303.6,405.9L303.6,400.1L307.1,400.1L307.1,392.3L313.4,390.6L313.4,400.1L317.8,400.1L317.8,405.9L313.4,405.9L313.4,429.1L307.1,429.1L307.1,405.9Z" style="fill:rgb(255,249,249);fill-rule:nonzero;"/>
            </g>
            <g transform="matrix(1,0,0,1,-94.2,-56)">
                <path d="M325.7,390.6C327.6,390.6 329.2,392.1 329.2,394.1C329.2,396.1 327.6,397.6 325.7,397.6C323.8,397.6 322.2,396 322.2,394.1C322.2,392.2 323.8,390.6 325.7,390.6ZM322.6,400.1L328.9,400.1L328.9,429.1L322.6,429.1L322.6,400.1Z" style="fill:rgb(255,249,249);fill-rule:nonzero;"/>
            </g>
            <g transform="matrix(1,0,0,1,-94.2,-56)">
                <path d="M373.9,400.1L380.2,400.1L380.2,416.3C380.2,420.6 383.3,423.6 387.2,423.6C391.2,423.6 394.3,420.6 394.3,416.3L394.3,400.1L400.6,400.1L400.6,416.9C400.6,425 394.2,429.9 387.3,429.9C380.5,429.9 374.1,425 374.1,416.9L374.1,400.1L373.9,400.1Z" style="fill:rgb(255,249,249);fill-rule:nonzero;"/>
            </g>
        </g>
        <g>
            <g transform="matrix(1,0,0,1,151.1,-56.1)">
                <path d="M366.2,142.403L366.2,142.4C366.2,142.4 366,142.403 366.2,142.403C372.2,142.403 381.9,147.3 381.9,158.6L381.9,159.8L366.3,159.8L357.9,159.8C358.2,164 362.1,167.2 366.3,167.5C369.7,167.5 373,165.8 375.1,163L380.4,165.9C376.9,170.3 371.5,172.998 366.3,172.998C356.536,172.671 350.9,165.185 350.9,157.7C350.9,150.226 356.462,142.751 366.2,142.403ZM366.2,147.9C362.2,147.9 358.9,150.4 357.9,154.7L374.6,154.7C373.3,150.3 370.1,148 366.2,147.9Z" style="fill:white;"/>
            </g>
            <g transform="matrix(1,0,0,1,339.2,-56.1)">
                <path d="M366.2,142.403L366.2,142.4C366.2,142.4 366,142.403 366.2,142.403C372.2,142.403 381.9,147.3 381.9,158.6L381.9,159.8L366.3,159.8L357.9,159.8C358.2,164 362.1,167.2 366.3,167.5C369.7,167.5 373,165.8 375.1,163L380.4,165.9C376.9,170.3 371.5,172.998 366.3,172.998C356.536,172.671 350.9,165.185 350.9,157.7C350.9,150.226 356.462,142.751 366.2,142.403ZM366.2,147.9C362.2,147.9 358.9,150.4 357.9,154.7L374.6,154.7C373.3,150.3 370.1,148 366.2,147.9Z" style="fill:white;"/>
            </g>
            <g transform="matrix(1,0,0,1,-94.2,-56)">
                <path d="M545.7,156.2L541.2,156.2L541.2,149.6L545.7,149.6L545.7,134.5L574.4,134.5L574.4,146.7L567.4,146.7L567.4,141.2L552.6,141.2L552.6,149.6L568,149.6L568,156.2L552.6,156.2L552.6,165.6L567.4,165.6L567.4,160L574.4,160L574.4,172.3L545.7,172.3L545.7,156.2Z" style="fill:white;fill-rule:nonzero;"/>
            </g>
            <g transform="matrix(1,0,0,1,-94.2,-56)">
                <path d="M587.5,134.5L587.5,160.5C587.5,163.9 588.2,165 590.1,166.1L593.4,168L590.7,172.9C584.3,169.9 581.3,167.6 581.3,161.6L581.3,134.5L587.5,134.5Z" style="fill:white;fill-rule:nonzero;"/>
            </g>
            <g transform="matrix(1,0,0,1,-94.2,-56)">
                <path d="M654.1,152.7C652.4,150.1 650.1,148.3 646.5,148.3C641,148.3 637.1,152.5 637.1,157.7C637.1,162.9 641.1,167.1 646.5,167.1C649.9,167.1 652.3,165.4 654.1,162.7L659.5,165.9C657,170 652,172.9 646.5,172.9C636.3,172.9 630.4,165.3 630.4,157.6C630.4,149.9 636.3,142.3 646.5,142.3C652.6,142.3 656.7,145.3 659.5,149.4L654.1,152.7Z" style="fill:white;fill-rule:nonzero;"/>
            </g>
            <g transform="matrix(1,0,0,1,-94.2,-56)">
                <path d="M665.4,149.1L661.9,149.1L661.9,143.2L665.4,143.2L665.4,135.5L671.7,133.7L671.7,143.2L676.1,143.2L676.1,149.1L671.7,149.1L671.7,172.3L665.4,172.3L665.4,149.1Z" style="fill:white;fill-rule:nonzero;"/>
            </g>
            <g transform="matrix(1,0,0,1,-94.2,-56)">
                <path d="M680.8,143.2L686.7,143.2L686.7,146.4L686.8,146.4C687.8,144 690,142.4 692.5,142.4C693.9,142.4 695.1,142.8 695.9,143.3L693.7,149.5C693.1,149 691.9,148.6 691.3,148.6C689,148.6 687,150.3 687,153L687,172.2L680.7,172.2L680.7,143.2L680.8,143.2Z" style="fill:white;fill-rule:nonzero;"/>
            </g>
            <g transform="matrix(1,0,0,1,-94.2,-56)">
                <path d="M703.1,133.7C705,133.7 706.6,135.3 706.6,137.2C706.6,139.1 705,140.7 703.1,140.7C701.2,140.7 699.6,139.1 699.6,137.2C699.6,135.3 701.2,133.7 703.1,133.7ZM700,143.2L706.3,143.2L706.3,172.3L700,172.3L700,143.2Z" style="fill:white;fill-rule:nonzero;"/>
            </g>
            <g transform="matrix(1,0,0,1,-94.2,-56)">
                <path d="M728.2,167.2C733.1,167.2 737.3,163 737.3,157.8C737.3,152.5 733.1,148.4 728.2,148.4C723.227,148.433 719,152.62 719,157.8C719,163 723.2,167.1 728.2,167.2L728.2,167.2ZM728.2,172.949C728.2,172.949 728.293,172.949 728.2,172.949C718.8,172.949 712.4,164.9 712.4,157.8C712.4,150.3 718.7,142.603 728.2,142.603C728.363,142.603 728.2,142.603 728.2,142.603C731.862,142.725 735.016,144.32 737.1,146.8L737.1,143.3L743.4,143.3L743.4,182.4L737,182.4L737,168.7C735.3,171.1 732.3,172.849 728.2,172.949Z" style="fill:white;"/>
            </g>
            <g transform="matrix(1,0,0,1,-94.2,-56)">
                <path d="M751.3,143.2L757.6,143.2L757.6,159.5C757.6,163.7 760.7,166.8 764.7,166.8C768.6,166.8 771.7,163.7 771.7,159.5L771.7,143.2L778,143.2L778,160C778,168.1 771.6,173 764.8,173C757.9,173 751.5,168.2 751.5,160L751.5,143.2L751.3,143.2Z" style="fill:white;fill-rule:nonzero;"/>
            </g>
        </g>
        <g>
            <g transform="matrix(1,0,0,1,-94.2,-56)">
                <path d="M338.3,172.3L328.8,156.2L321.9,156.2L321.9,172.3L314.9,172.3L314.9,156.2L310.4,156.2L310.4,149.6L314.9,149.6L314.9,134.5L333.6,134.5C342,134.5 346.1,138.8 346.1,145.4C346.1,150.4 343.7,155 336.5,156.1L346.5,172.3L338.3,172.3ZM334.2,141.2L321.9,141.2L321.9,149.6L334.2,149.7C337.8,149.7 339,147.5 339,145.5C339,143.5 337.8,141.2 334.2,141.2Z" style="fill:white;"/>
            </g>
            <g transform="matrix(1,0,0,1,-94.2,-56)">
                <path d="M366.2,142.403L366.2,142.4C366.2,142.4 366,142.403 366.2,142.403C372.2,142.403 381.9,147.3 381.9,158.6L381.9,159.8L366.3,159.8L357.9,159.8C358.2,164 362.1,167.2 366.3,167.5C369.7,167.5 373,165.8 375.1,163L380.4,165.9C376.9,170.3 371.5,172.998 366.3,172.998C356.536,172.671 350.9,165.185 350.9,157.7C350.9,150.226 356.462,142.751 366.2,142.403ZM366.2,147.9C362.2,147.9 358.9,150.4 357.9,154.7L374.6,154.7C373.3,150.3 370.1,148 366.2,147.9ZM361.8,140L361.8,135.7L373.5,132.6L373.5,136.9L361.8,140Z" style="fill:white;"/>
            </g>
            <g transform="matrix(1,0,0,1,-26,-56.0491)">
                <path d="M366.2,142.403L366.2,142.4C366.2,142.4 366,142.403 366.2,142.403C372.2,142.403 381.9,147.3 381.9,158.6L381.9,159.8L366.3,159.8L357.9,159.8C358.2,164 362.1,167.2 366.3,167.5C369.7,167.5 373,165.8 375.1,163L380.4,165.9C376.9,170.3 371.5,172.998 366.3,172.998C356.536,172.671 350.9,165.185 350.9,157.7C350.9,150.226 356.462,142.751 366.2,142.403ZM366.2,147.9C362.2,147.9 358.9,150.4 357.9,154.7L374.6,154.7C373.3,150.3 370.1,148 366.2,147.9Z" style="fill:white;"/>
            </g>
            <g transform="matrix(1,0,0,1,-94.2,-56)">
                <path d="M414.3,154.5C414.6,155.5 414.8,156.4 414.8,158.8C414.8,165.9 409.6,172.9 399.9,172.9C394.5,172.9 389.7,170.5 387.1,167.7L391.9,163.5C393.3,164.9 396.1,167 400.2,167C404.2,167 407.8,164.8 408.2,159.9L386.7,159.9C386.5,159 386.3,158.3 386.3,156.9C386.3,149.1 391.9,142.2 401.1,142.2C407,142.2 410.7,145.1 412.7,147.2L408.3,151.3C406.7,149.7 404.8,147.7 401,147.7C395.8,147.7 393.4,150.6 392.9,154.3L414.3,154.3L414.3,154.5Z" style="fill:white;fill-rule:nonzero;"/>
            </g>
            <g transform="matrix(1,0,0,1,-94.2,-56)">
                <path d="M470.1,167.2C475,167.2 479.3,163 479.3,157.8C479.3,152.5 475,148.4 470.1,148.4C470.113,148.4 470.1,148.4 470.1,148.4C465.126,148.433 460.9,152.62 460.9,157.8C460.9,163 465.1,167.1 470.1,167.2L470.1,167.2ZM470.1,172.998C470.1,172.998 470.293,172.998 470.1,172.998C460.5,172.998 454.5,165.3 454.5,157.8C454.5,150.7 460.7,142.5 470.1,142.5C474.2,142.6 477.5,144.4 479,146.8L479,143.3L485.3,143.3L485.3,172.4L479,172.4L479,168.7C477.1,171.2 473.8,172.798 470.1,172.998Z" style="fill:white;"/>
            </g>
            <g transform="matrix(1,0,0,1,-94.2,-56)">
                <path d="M493.4,143.2L499.7,143.2L499.7,159.5C499.7,163.7 502.8,166.8 506.7,166.8C510.6,166.8 513.8,163.7 513.8,159.5L513.8,143.2L520,143.2L520,160C520,168.1 513.7,173 506.8,173C499.9,173 493.6,168.2 493.6,160L493.6,143.2L493.4,143.2Z" style="fill:white;fill-rule:nonzero;"/>
            </g>
        </g>
        <g>
            <g transform="matrix(1,0,0,1,-94.2,-56)">
                <path d="M285.4,152.9C285.4,159.4 282.7,165.3 278.5,169.5C274.3,173.7 268.3,176.3 261.9,176.3C255.4,176.3 249.5,173.7 245.3,169.5C241.1,165.3 238.5,159.3 238.5,152.9C238.5,146.5 241.1,140.5 245.3,136.3C249.5,132.1 255.5,129.5 261.9,129.5C268.4,129.5 274.3,132.1 278.5,136.3C282.8,140.5 285.4,146.4 285.4,152.9Z" style="fill:black;fill-rule:nonzero;"/>
            </g>
            <g transform="matrix(1,0,0,1,-94.2,-56)">
                <path d="M261.9,132.4C273.214,132.4 282.4,141.586 282.4,152.9C282.4,164.214 273.214,173.4 261.9,173.4C250.586,173.4 241.4,164.214 241.4,152.9C241.4,141.586 250.586,132.4 261.9,132.4Z" style="fill:rgb(194,41,33);"/>
            </g>
        </g>
        <g transform="matrix(1,0,0,1,-94.2,-56)">
            <path d="M422.1,396.3C416.603,396.497 412.262,398.716 409.078,401.825C405.892,405.321 404.1,409.91 404.1,414.4C404.1,419 405.9,423.6 409.1,427C409.2,427.1 409.4,427.4 409.6,427.5L316.8,516L309.2,523.2L314.4,514.2L356.7,439.2L356.7,442L368.9,442L368.9,425.9L368.9,418.25L371.2,413.4C371.235,423.666 373.2,425.8 376.2,428.6C379.2,431.3 383.2,432.7 387.4,432.8L387.5,432.8C391.7,432.8 395.7,431.3 398.7,428.6C398.875,428.442 399.047,428.28 399.214,428.113C401.949,425.353 403.6,421.561 403.6,416.9L403.6,397.1L391.4,397.1L391.4,416.3C391.4,417.6 390.9,418.7 390.2,419.5C390.173,419.527 390.146,419.553 390.118,419.579L390.1,419.6C389.4,420.3 388.4,420.7 387.2,420.7C386.1,420.7 385.1,420.3 384.4,419.6C383.6,418.8 383.2,417.7 383.2,416.4L383.2,401L383.2,397.1L380.9,397.1L422,327.374L509.3,175.8C510.715,175.579 512.092,175.182 513.385,174.625L513.4,174.6C515,173.9 516.4,172.9 517.599,171.8C518.5,171 519.3,170.1 520,169L520.115,169.19C520.784,168.234 521.354,167.191 521.8,166.1L574.2,252.4L662.4,166.4L662.4,175.2L674.7,175.2L674.7,154.4L677.9,151L677.9,155.7L677.9,175.2L690.1,175.2L690.1,153C690.1,152.6 690.2,152.2 690.5,152C690.8,151.8 691.1,151.6 691.4,151.6C691.5,151.6 691.764,151.597 691.9,151.7C692.517,152.167 695.1,154.4 695.1,154.4L696.5,150.4L697,149.1L697,175.1L709.2,175.1L709.2,141.1L707.9,141.1C707.9,141.1 709.337,140.356 709.499,137.052C709.561,135.798 708.789,133.689 707.6,132.5C706.926,131.922 706.159,131.345 705.3,131.035C705.021,130.928 704.839,130.727 703.667,130.533C703.451,130.497 703.226,130.5 703,130.5C701.3,130.5 699.6,131.2 698.5,132.4C697.3,133.6 696.6,135.2 696.6,137C696.6,138 696.9,138.999 697.3,140L698,141.3L697,140.6C696.6,140.3 695.221,139.663 694.471,139.429C693.839,139.233 693.207,139.2 692.5,139.2C691.5,139.2 690.6,139.3 689.6,139.6L768.4,62.9L775.5,56L770.7,64.9L730,139.6C729.1,139.5 728.3,139.4 727.3,139.4C726.751,139.4 726.212,139.421 725.685,139.463C720.771,139.896 716.909,142.11 714.1,145.2C711,148.7 709.3,153.2 709.3,157.7C709.3,160.7 710.2,163.8 711.8,166.6C711.8,166.6 712.958,168.63 713.7,169.5L587,401.9C583.8,398.5 579,396.3 573.1,396.3C567.2,396.3 562.401,398.6 559.1,402C558.7,402.5 558.2,403.1 557.7,403.7L557.697,403.695C557,404.643 556.393,405.653 555.9,406.7L555.8,406.4C555,402.2 553,398.1 549.9,395L549.8,394.9L514.4,327.3L435.9,402.3C435.5,401.9 435,401.4 434.6,401C434.297,400.731 433.989,400.474 433.674,400.229L433.6,400.3C430.2,397.6 426.1,396.3 422.7,396.3L422.1,396.3ZM425.1,408.6L419.1,408.6C419.3,408.5 419.5,408.4 419.7,408.3C419.9,408.1 420.2,408.1 420.5,408C420.969,407.906 421.437,407.813 421.989,407.801L422.1,407.8L422.203,407.801C423.262,407.819 424.228,408.115 425.1,408.6Z" style="fill:rgb(255,219,0);"/>
        </g>
        <g>
            <g transform="matrix(1,0,0,1,-94.2,-56)">
                <path d="M764.2,265.6L718.1,265.6L715.1,265.6L715.1,236L816.6,236L813.8,240.7L760.2,328.6L812.8,328.6L812.8,358.1L809.8,358.1L713.3,358.1L708,358.1L710.7,353.6L764.2,265.6Z" style="fill:black;fill-rule:nonzero;"/>
            </g>
            <g transform="matrix(1,0,0,1,-94.2,-56)">
                <path d="M769.5,262.6L718.1,262.6L718.1,239.1L811.2,239.1L754.9,331.6L809.8,331.6L809.8,355.1L713.3,355.1L769.5,262.6Z" style="fill:rgb(0,129,193);fill-rule:nonzero;"/>
            </g>
        </g>
        <g>
            <g transform="matrix(1,0,0,1,-94.2,-56)">
                <path d="M636.9,333C636.9,333 638.3,333 639,333C645.2,333 651,331.5 656.1,328.7C657,328.2 657.9,327.8 658.6,327.3C662.8,324.5 666.7,320.8 670.1,316.3L671.7,314.2L674,315.5L695.1,327.2L698.2,328.9L696,331.7L695.9,331.8C693.9,334.3 691.7,336.701 689.5,338.9C687.3,341.2 685,343.3 682.6,345.2C670.1,355.2 655.4,361 639.7,361.1L636.9,361.1L636.9,361.2C617,360.5 601.2,352.7 590.3,341.1C578.9,329.1 572.7,313.1 572.7,297C572.7,281 578.9,264.9 590.3,252.9C601.381,241.419 617.047,233.523 636.9,232.9C636.9,232.9 638.8,232.9 639.7,232.9C652.4,232.9 668.3,238.1 680.9,249.3C693.5,260.5 702.9,277.5 702.9,301L702.9,308.6L606.9,308.6C607.2,309.7 607.4,310.8 607.8,311.8C608.4,313.9 609.3,315.8 610.5,317.6C615.9,326.5 626.1,332.4 636.9,333ZM666.4,282.1C666,281.2 665.7,280.3 665.2,279.4C664.3,277.4 663.2,275.6 662,273.9C656.02,265.527 647.158,261.129 637,260.902C637,260.902 636.6,260.902 636.4,260.902C633.4,260.902 630.6,261.4 628,262.1C626.3,262.5 624.6,263.1 623.1,263.8C616,267.2 610.4,273.4 607.4,282.1L666.4,282.1Z" style="fill:black;"/>
            </g>
            <g transform="matrix(1,0,0,1,-94.2,-56)">
                <path d="M636.772,358.192C597.913,356.784 575.6,327.042 575.6,297.2C575.6,267.2 598,237.4 637,236.1C637,236.1 612.745,236.254 637,236.1C664.023,235.928 699.9,255.9 699.9,301.1L699.9,305.7L603.4,305.7C604.8,322.8 620.2,335.201 637,336.1C637,336.1 638.319,336.201 638.9,336.201C652.3,336.201 663.8,329.7 672.5,318.2L693.7,329.9C679.7,347.5 660.6,358 639.7,358.3C638.8,358.3 636.772,358.192 636.772,358.192ZM670.6,285.2C665.321,267.768 652.6,258.374 637.182,258.103C637.182,258.103 636.5,258.1 636.3,258.1C620.5,258.1 607.5,267.9 603.4,285.2L670.6,285.2Z" style="fill:rgb(0,129,193);"/>
            </g>
        </g>
        <g>
            <g transform="matrix(1,0,0,1,-94.2,-56)">
                <path d="M459.4,236L489.3,236L490,238L513.2,297.8L536.3,238L537.1,236L571.6,236L569.7,240.3L515.9,359.5L513.2,365.5L510.4,359.5L456.8,240.3L454.9,236L459.4,236Z" style="fill:black;fill-rule:nonzero;"/>
            </g>
            <g transform="matrix(1,0,0,1,-94.2,-56)">
                <path d="M459.4,239.1L487.2,239.1L512.9,305.4L513.4,305.4L539.1,239.1L566.9,239.1L513.2,358.2L459.4,239.1Z" style="fill:rgb(0,129,193);fill-rule:nonzero;"/>
            </g>
        </g>
        <g>
            <g transform="matrix(1,0,0,1,-343.3,-55.9)">
                <path d="M636.9,333C636.9,333 638.3,333 639,333C645.2,333 651,331.5 656.1,328.7C657,328.2 657.9,327.8 658.6,327.3C662.8,324.5 666.7,320.8 670.1,316.3L671.7,314.2L674,315.5L695.1,327.2L698.2,328.9L696,331.7L695.9,331.8C693.9,334.3 691.7,336.701 689.5,338.9C687.3,341.2 685,343.3 682.6,345.2C670.1,355.2 655.4,361 639.7,361.1L636.9,361.1L636.9,361.2C617,360.5 601.2,352.7 590.3,341.1C578.9,329.1 572.7,313.1 572.7,297C572.7,281 578.9,264.9 590.3,252.9C601.381,241.419 617.047,233.523 636.9,232.9C636.9,232.9 638.8,232.9 639.7,232.9C652.4,232.9 668.3,238.1 680.9,249.3C693.5,260.5 702.9,277.5 702.9,301L702.9,308.6L606.9,308.6C607.2,309.7 607.4,310.8 607.8,311.8C608.4,313.9 609.3,315.8 610.5,317.6C615.9,326.5 626.1,332.4 636.9,333ZM666.4,282.1C666,281.2 665.7,280.3 665.2,279.4C664.3,277.4 663.2,275.6 662,273.9C656.02,265.527 647.158,261.129 637,260.902C637,260.902 636.6,260.902 636.4,260.902C633.4,260.902 630.6,261.4 628,262.1C626.3,262.5 624.6,263.1 623.1,263.8C616,267.2 610.4,273.4 607.4,282.1L666.4,282.1Z" style="fill:black;"/>
            </g>
            <g transform="matrix(1,0,0,1,-343.3,-55.9)">
                <path d="M636.772,358.192C597.913,356.784 575.6,327.042 575.6,297.2C575.6,267.2 598,237.4 637,236.1C637,236.1 612.745,236.254 637,236.1C664.023,235.928 699.9,255.9 699.9,301.1L699.9,305.7L603.4,305.7C604.8,322.8 620.2,335.201 637,336.1C637,336.1 638.319,336.201 638.9,336.201C652.3,336.201 663.8,329.7 672.5,318.2L693.7,329.9C679.7,347.5 660.6,358 639.7,358.3C638.8,358.3 636.772,358.192 636.772,358.192ZM670.6,285.2C665.321,267.768 652.6,258.374 637.182,258.103C637.182,258.103 636.5,258.1 636.3,258.1C620.5,258.1 607.5,267.9 603.4,285.2L670.6,285.2Z" style="fill:rgb(0,129,193);"/>
            </g>
        </g>
        <g>
            <g transform="matrix(1,0,0,1,-94.2,-56)">
                <path d="M148,233.9L148,201.6L248,201.6L261.7,201.6C279.2,201.6 292.3,206.2 301.1,214.3C310,222.4 314.4,234.1 314.4,248C314.4,252.2 314,256.4 313.1,260.4C312.5,263 311.7,265.6 310.7,268C305.7,279.8 295.6,289.2 278.2,292.6L315.9,353.6L318.8,358.2L278.8,358.2L278.8,358.2L278.795,358.192L277.9,356.7L276.106,353.681L249.1,308.378L249.1,308.4L248.207,306.88L240.589,294.1L217.8,294.1C217.8,312.801 211.9,329.5 200.7,341.7C189.5,353.9 173.1,361.3 152,361.3C147,361.3 142.3,360.9 137.9,360.1C134,359.3 130.3,358.3 127,357.1C109.7,350.8 99.8,338.9 95.6,331.7L94.2,329.3L96.5,327.7L118.8,312.6L121.2,310.9L122.9,313.3C125.2,316.5 128.5,320.4 133.1,323.5C137.8,326.6 143.6,328.8 151,328.8C159.7,328.8 168,325.9 174,319.8C180,313.6 183.9,303.8 183.9,290.3L183.9,233.9L148,233.9ZM217.8,233.9L217.8,261.8L249.2,261.8L249.2,261.8L264,261.8C270.3,261.8 274.4,259.9 277,257.2C279.4,254.6 280.5,251.2 280.5,248C280.5,244.8 279.5,241.2 277,238.6C274.5,236 270.4,234 264.1,234L250,234L217.8,233.9Z" style="fill:black;"/>
            </g>
            <g transform="matrix(1,0,0,1,-94.2,-56)">
                <path d="M249.1,302.2L242.4,290.8L214.8,290.8L214.8,293.7C214.8,329.7 192.2,358.1 151.9,358.1C120.2,358.1 103.6,339.6 98.1,330L120.4,314.9C125.2,321.8 134.8,331.7 150.9,331.7C170.1,331.7 186.9,319 186.9,290.2L186.9,230.9L150.9,230.9L150.9,204.4L249.1,204.4L249.1,204.5L261.6,204.5C295,204.5 311.3,221.8 311.3,247.9C311.3,267.8 301.5,286.6 273.1,290.2L313.2,355L280.3,355L249.1,302.3L249.1,302.2ZM249.1,230.8L214.8,230.8L214.8,264.6L249.1,264.6L249.1,264.7L264,264.7C278.4,264.7 283.4,255.6 283.4,247.9C283.4,240 278.4,230.9 264,230.9L249.1,230.9L249.1,230.8Z" style="fill:rgb(0,129,193);"/>
            </g>
        </g>
    </g>
</svg>
